STARTFONT 2.1
COMMENT
COMMENT Converted from OpenType font "Q:\font stuff\winfont\ZX Spectrum.ttf" by "otf2bdf 3.0".
COMMENT
FONT -FreeType-ZX Spectrum-Medium-R-Normal--16-160-72-72-P-110-ISO10646-1
SIZE 16 72 72
FONTBOUNDINGBOX 16 16 0 0
STARTPROPERTIES 19
FOUNDRY "FreeType"
FAMILY_NAME "ZX Spectrum"
WEIGHT_NAME "Medium"
SLANT "R"
SETWIDTH_NAME "Normal"
ADD_STYLE_NAME ""
PIXEL_SIZE 16
POINT_SIZE 160
RESOLUTION_X 72
RESOLUTION_Y 72
SPACING "P"
AVERAGE_WIDTH 110
CHARSET_REGISTRY "ISO10646"
CHARSET_ENCODING "1"
FONT_ASCENT 14
FONT_DESCENT 0
COPYRIGHT "WhoAmI Design, July'98 -- www.btinternet.com/~whoami"
_OTF_FONTFILE "Q:\font stuff\winfont\ZX Spectrum.ttf"
_OTF_PSNAME "ZXSpectrum"
ENDPROPERTIES
CHARS 122
STARTCHAR 0020
ENCODING 32
SWIDTH 1000 0
DWIDTH 16 0
BBX 0 0 0 0
BITMAP
ENDCHAR
STARTCHAR 0021
ENCODING 33
SWIDTH 1000 0
DWIDTH 16 0
BBX 2 12 4 2
BITMAP
C0
C0
C0
C0
C0
C0
C0
C0
00
00
C0
C0
ENDCHAR
STARTCHAR 0022
ENCODING 34
SWIDTH 1000 0
DWIDTH 16 0
BBX 8 4 2 9
BITMAP
C3
C3
C3
C3
ENDCHAR
STARTCHAR 0023
ENCODING 35
SWIDTH 1000 0
DWIDTH 16 0
BBX 12 12 0 2
BITMAP
30C0
30C0
FFF0
FFF0
30C0
30C0
30C0
30C0
FFF0
FFF0
30C0
30C0
ENDCHAR
STARTCHAR 0024
ENCODING 36
SWIDTH 1000 0
DWIDTH 16 0
BBX 10 14 2 0
BITMAP
0C00
0C00
FFC0
FFC0
CC00
CC00
FFC0
FFC0
0CC0
0CC0
FFC0
FFC0
0C00
0C00
ENDCHAR
STARTCHAR 0025
ENCODING 37
SWIDTH 1000 0
DWIDTH 16 0
BBX 12 12 0 2
BITMAP
F030
F030
F0C0
F0C0
0300
0300
0C00
0C00
30F0
30F0
C0F0
C0F0
ENDCHAR
STARTCHAR 0026
ENCODING 38
SWIDTH 1000 0
DWIDTH 16 0
BBX 12 12 0 2
BITMAP
0C00
0C00
3300
3300
0C00
0C00
3330
3330
C0C0
C0C0
3F30
3F30
ENDCHAR
STARTCHAR 0027
ENCODING 39
SWIDTH 1000 0
DWIDTH 16 0
BBX 4 4 4 9
BITMAP
30
30
C0
C0
ENDCHAR
STARTCHAR 0028
ENCODING 40
SWIDTH 1000 0
DWIDTH 16 0
BBX 4 12 8 2
BITMAP
30
30
C0
C0
C0
C0
C0
C0
C0
C0
30
30
ENDCHAR
STARTCHAR 0029
ENCODING 41
SWIDTH 1000 0
DWIDTH 16 0
BBX 4 12 2 2
BITMAP
C0
C0
30
30
30
30
30
30
30
30
C0
C0
ENDCHAR
STARTCHAR 002A
ENCODING 42
SWIDTH 1000 0
DWIDTH 16 0
BBX 10 10 2 2
BITMAP
3300
3300
0C00
0C00
FFC0
FFC0
0C00
0C00
3300
3300
ENDCHAR
STARTCHAR 002B
ENCODING 43
SWIDTH 1000 0
DWIDTH 16 0
BBX 10 10 2 2
BITMAP
0C00
0C00
0C00
0C00
FFC0
FFC0
0C00
0C00
0C00
0C00
ENDCHAR
STARTCHAR 002C
ENCODING 44
SWIDTH 1000 0
DWIDTH 16 0
BBX 4 6 4 1
BITMAP
30
30
30
30
C0
C0
ENDCHAR
STARTCHAR 002D
ENCODING 45
SWIDTH 1000 0
DWIDTH 16 0
BBX 10 2 2 6
BITMAP
FFC0
FFC0
ENDCHAR
STARTCHAR 002E
ENCODING 46
SWIDTH 1000 0
DWIDTH 16 0
BBX 4 4 4 3
BITMAP
F0
F0
F0
F0
ENDCHAR
STARTCHAR 002F
ENCODING 47
SWIDTH 1000 0
DWIDTH 16 0
BBX 10 10 2 1
BITMAP
00C0
00C0
0300
0300
0C00
0C00
3000
3000
C000
C000
ENDCHAR
STARTCHAR 0030
ENCODING 48
SWIDTH 1000 0
DWIDTH 16 0
BBX 12 12 0 2
BITMAP
3FC0
3FC0
C0F0
C0F0
C330
C330
CC30
CC30
F030
F030
3FC0
3FC0
ENDCHAR
STARTCHAR 0031
ENCODING 49
SWIDTH 1000 0
DWIDTH 16 0
BBX 10 12 2 2
BITMAP
3C00
3C00
CC00
CC00
0C00
0C00
0C00
0C00
0C00
0C00
FFC0
FFC0
ENDCHAR
STARTCHAR 0032
ENCODING 50
SWIDTH 1000 0
DWIDTH 16 0
BBX 12 12 0 2
BITMAP
3FC0
3FC0
C030
C030
0030
0030
3FC0
3FC0
C000
C000
FFF0
FFF0
ENDCHAR
STARTCHAR 0033
ENCODING 51
SWIDTH 1000 0
DWIDTH 16 0
BBX 12 12 0 2
BITMAP
3FC0
3FC0
C030
C030
03C0
03C0
0030
0030
C030
C030
3FC0
3FC0
ENDCHAR
STARTCHAR 0034
ENCODING 52
SWIDTH 1000 0
DWIDTH 16 0
BBX 12 12 0 2
BITMAP
0300
0300
0F00
0F00
3300
3300
C300
C300
FFF0
FFF0
0300
0300
ENDCHAR
STARTCHAR 0035
ENCODING 53
SWIDTH 1000 0
DWIDTH 16 0
BBX 12 12 0 2
BITMAP
FFF0
FFF0
C000
C000
FFC0
FFC0
0030
0030
C030
C030
3FC0
3FC0
ENDCHAR
STARTCHAR 0036
ENCODING 54
SWIDTH 1000 0
DWIDTH 16 0
BBX 12 12 0 2
BITMAP
3FC0
3FC0
C000
C000
FFC0
FFC0
C030
C030
C030
C030
3FC0
3FC0
ENDCHAR
STARTCHAR 0037
ENCODING 55
SWIDTH 1000 0
DWIDTH 16 0
BBX 12 12 0 2
BITMAP
FFF0
FFF0
0030
0030
00C0
00C0
0300
0300
0C00
0C00
0C00
0C00
ENDCHAR
STARTCHAR 0038
ENCODING 56
SWIDTH 1000 0
DWIDTH 16 0
BBX 12 12 0 2
BITMAP
3FC0
3FC0
C030
C030
3FC0
3FC0
C030
C030
C030
C030
3FC0
3FC0
ENDCHAR
STARTCHAR 0039
ENCODING 57
SWIDTH 1000 0
DWIDTH 16 0
BBX 12 12 0 2
BITMAP
3FC0
3FC0
C030
C030
C030
C030
3FF0
3FF0
0030
0030
3FC0
3FC0
ENDCHAR
STARTCHAR 003A
ENCODING 58
SWIDTH 1000 0
DWIDTH 16 0
BBX 2 8 4 3
BITMAP
C0
C0
00
00
00
00
C0
C0
ENDCHAR
STARTCHAR 003B
ENCODING 59
SWIDTH 1000 0
DWIDTH 16 0
BBX 4 12 2 0
BITMAP
30
30
00
00
00
00
30
30
30
30
C0
C0
ENDCHAR
STARTCHAR 003C
ENCODING 60
SWIDTH 1000 0
DWIDTH 16 0
BBX 6 10 4 2
BITMAP
0C
0C
30
30
C0
C0
30
30
0C
0C
ENDCHAR
STARTCHAR 003D
ENCODING 61
SWIDTH 1000 0
DWIDTH 16 0
BBX 10 6 2 4
BITMAP
FFC0
FFC0
0000
0000
FFC0
FFC0
ENDCHAR
STARTCHAR 003E
ENCODING 62
SWIDTH 1000 0
DWIDTH 16 0
BBX 6 10 2 2
BITMAP
C0
C0
30
30
0C
0C
30
30
C0
C0
ENDCHAR
STARTCHAR 003F
ENCODING 63
SWIDTH 1000 0
DWIDTH 16 0
BBX 12 12 0 2
BITMAP
3FC0
3FC0
C030
C030
00C0
00C0
0300
0300
0000
0000
0300
0300
ENDCHAR
STARTCHAR 0040
ENCODING 64
SWIDTH 1000 0
DWIDTH 16 0
BBX 12 12 0 2
BITMAP
3FC0
3FC0
C330
C330
CCF0
CCF0
CFF0
CFF0
C000
C000
3FC0
3FC0
ENDCHAR
STARTCHAR 0041
ENCODING 65
SWIDTH 1000 0
DWIDTH 16 0
BBX 12 12 0 2
BITMAP
3FC0
3FC0
C030
C030
C030
C030
FFF0
FFF0
C030
C030
C030
C030
ENDCHAR
STARTCHAR 0042
ENCODING 66
SWIDTH 1000 0
DWIDTH 16 0
BBX 12 12 0 2
BITMAP
FFC0
FFC0
C030
C030
FFC0
FFC0
C030
C030
C030
C030
FFC0
FFC0
ENDCHAR
STARTCHAR 0043
ENCODING 67
SWIDTH 1000 0
DWIDTH 16 0
BBX 12 12 0 2
BITMAP
3FC0
3FC0
C030
C030
C000
C000
C000
C000
C030
C030
3FC0
3FC0
ENDCHAR
STARTCHAR 0044
ENCODING 68
SWIDTH 1000 0
DWIDTH 16 0
BBX 12 12 0 2
BITMAP
FF00
FF00
C0C0
C0C0
C030
C030
C030
C030
C0C0
C0C0
FF00
FF00
ENDCHAR
STARTCHAR 0045
ENCODING 69
SWIDTH 1000 0
DWIDTH 16 0
BBX 12 12 0 2
BITMAP
FFF0
FFF0
C000
C000
FFC0
FFC0
C000
C000
C000
C000
FFF0
FFF0
ENDCHAR
STARTCHAR 0046
ENCODING 70
SWIDTH 1000 0
DWIDTH 16 0
BBX 12 12 0 2
BITMAP
FFF0
FFF0
C000
C000
FFC0
FFC0
C000
C000
C000
C000
C000
C000
ENDCHAR
STARTCHAR 0047
ENCODING 71
SWIDTH 1000 0
DWIDTH 16 0
BBX 12 12 0 2
BITMAP
3FC0
3FC0
C030
C030
C000
C000
C3F0
C3F0
C030
C030
3FC0
3FC0
ENDCHAR
STARTCHAR 0048
ENCODING 72
SWIDTH 1000 0
DWIDTH 16 0
BBX 12 12 0 2
BITMAP
C030
C030
C030
C030
FFF0
FFF0
C030
C030
C030
C030
C030
C030
ENDCHAR
STARTCHAR 0049
ENCODING 73
SWIDTH 1000 0
DWIDTH 16 0
BBX 10 12 2 2
BITMAP
FFC0
FFC0
0C00
0C00
0C00
0C00
0C00
0C00
0C00
0C00
FFC0
FFC0
ENDCHAR
STARTCHAR 004A
ENCODING 74
SWIDTH 1000 0
DWIDTH 16 0
BBX 12 12 0 2
BITMAP
0030
0030
0030
0030
0030
0030
C030
C030
C030
C030
3FC0
3FC0
ENDCHAR
STARTCHAR 004B
ENCODING 75
SWIDTH 1000 0
DWIDTH 16 0
BBX 12 12 0 2
BITMAP
C0C0
C0C0
C300
C300
FC00
FC00
C300
C300
C0C0
C0C0
C030
C030
ENDCHAR
STARTCHAR 004C
ENCODING 76
SWIDTH 1000 0
DWIDTH 16 0
BBX 12 12 0 2
BITMAP
C000
C000
C000
C000
C000
C000
C000
C000
C000
C000
FFF0
FFF0
ENDCHAR
STARTCHAR 004D
ENCODING 77
SWIDTH 1000 0
DWIDTH 16 0
BBX 12 12 0 2
BITMAP
C030
C030
F0F0
F0F0
CF30
CF30
C030
C030
C030
C030
C030
C030
ENDCHAR
STARTCHAR 004E
ENCODING 78
SWIDTH 1000 0
DWIDTH 16 0
BBX 12 12 0 2
BITMAP
C030
C030
F030
F030
CC30
CC30
C330
C330
C0F0
C0F0
C030
C030
ENDCHAR
STARTCHAR 004F
ENCODING 79
SWIDTH 1000 0
DWIDTH 16 0
BBX 12 12 0 2
BITMAP
3FC0
3FC0
C030
C030
C030
C030
C030
C030
C030
C030
3FC0
3FC0
ENDCHAR
STARTCHAR 0050
ENCODING 80
SWIDTH 1000 0
DWIDTH 16 0
BBX 12 12 0 2
BITMAP
FFC0
FFC0
C030
C030
C030
C030
FFC0
FFC0
C000
C000
C000
C000
ENDCHAR
STARTCHAR 0051
ENCODING 81
SWIDTH 1000 0
DWIDTH 16 0
BBX 12 12 0 2
BITMAP
3FC0
3FC0
C030
C030
C030
C030
CC30
CC30
C330
C330
3FC0
3FC0
ENDCHAR
STARTCHAR 0052
ENCODING 82
SWIDTH 1000 0
DWIDTH 16 0
BBX 12 12 0 2
BITMAP
FFC0
FFC0
C030
C030
C030
C030
FFC0
FFC0
C0C0
C0C0
C030
C030
ENDCHAR
STARTCHAR 0053
ENCODING 83
SWIDTH 1000 0
DWIDTH 16 0
BBX 12 12 0 2
BITMAP
3FC0
3FC0
C000
C000
3FC0
3FC0
0030
0030
C030
C030
3FC0
3FC0
ENDCHAR
STARTCHAR 0054
ENCODING 84
SWIDTH 1000 0
DWIDTH 16 0
BBX 14 12 0 2
BITMAP
FFFC
FFFC
0300
0300
0300
0300
0300
0300
0300
0300
0300
0300
ENDCHAR
STARTCHAR 0055
ENCODING 85
SWIDTH 1000 0
DWIDTH 16 0
BBX 12 12 0 2
BITMAP
C030
C030
C030
C030
C030
C030
C030
C030
C030
C030
3FC0
3FC0
ENDCHAR
STARTCHAR 0056
ENCODING 86
SWIDTH 1000 0
DWIDTH 16 0
BBX 12 12 0 2
BITMAP
C030
C030
C030
C030
C030
C030
C030
C030
30C0
30C0
0F00
0F00
ENDCHAR
STARTCHAR 0057
ENCODING 87
SWIDTH 1000 0
DWIDTH 16 0
BBX 12 12 0 2
BITMAP
C030
C030
C030
C030
C030
C030
C030
C030
CF30
CF30
30C0
30C0
ENDCHAR
STARTCHAR 0058
ENCODING 88
SWIDTH 1000 0
DWIDTH 16 0
BBX 12 12 0 2
BITMAP
C030
C030
30C0
30C0
0F00
0F00
0F00
0F00
30C0
30C0
C030
C030
ENDCHAR
STARTCHAR 0059
ENCODING 89
SWIDTH 1000 0
DWIDTH 16 0
BBX 14 12 0 2
BITMAP
C00C
C00C
3030
3030
0CC0
0CC0
0300
0300
0300
0300
0300
0300
ENDCHAR
STARTCHAR 005A
ENCODING 90
SWIDTH 1000 0
DWIDTH 16 0
BBX 12 12 0 2
BITMAP
FFF0
FFF0
00C0
00C0
0300
0300
0C00
0C00
3000
3000
FFF0
FFF0
ENDCHAR
STARTCHAR 005B
ENCODING 91
SWIDTH 1000 0
DWIDTH 16 0
BBX 6 12 6 2
BITMAP
FC
FC
C0
C0
C0
C0
C0
C0
C0
C0
FC
FC
ENDCHAR
STARTCHAR 005C
ENCODING 92
SWIDTH 1000 0
DWIDTH 16 0
BBX 10 10 2 2
BITMAP
C000
C000
3000
3000
0C00
0C00
0300
0300
00C0
00C0
ENDCHAR
STARTCHAR 005D
ENCODING 93
SWIDTH 1000 0
DWIDTH 16 0
BBX 6 12 2 2
BITMAP
FC
FC
0C
0C
0C
0C
0C
0C
0C
0C
FC
FC
ENDCHAR
STARTCHAR 005E
ENCODING 94
SWIDTH 1000 0
DWIDTH 16 0
BBX 10 12 2 2
BITMAP
0C00
0C00
3F00
3F00
CCC0
CCC0
0C00
0C00
0C00
0C00
0C00
0C00
ENDCHAR
STARTCHAR 005F
ENCODING 95
SWIDTH 1000 0
DWIDTH 16 0
BBX 16 2 0 1
BITMAP
FFFF
FFFF
ENDCHAR
STARTCHAR 0061
ENCODING 97
SWIDTH 1000 0
DWIDTH 16 0
BBX 10 10 0 2
BITMAP
3F00
3F00
00C0
00C0
3FC0
3FC0
C0C0
C0C0
3FC0
3FC0
ENDCHAR
STARTCHAR 0062
ENCODING 98
SWIDTH 1000 0
DWIDTH 16 0
BBX 10 12 2 2
BITMAP
C000
C000
C000
C000
FF00
FF00
C0C0
C0C0
C0C0
C0C0
FF00
FF00
ENDCHAR
STARTCHAR 0063
ENCODING 99
SWIDTH 1000 0
DWIDTH 16 0
BBX 8 10 2 2
BITMAP
3F
3F
C0
C0
C0
C0
C0
C0
3F
3F
ENDCHAR
STARTCHAR 0064
ENCODING 100
SWIDTH 1000 0
DWIDTH 16 0
BBX 10 12 0 2
BITMAP
00C0
00C0
00C0
00C0
3FC0
3FC0
C0C0
C0C0
C0C0
C0C0
3FC0
3FC0
ENDCHAR
STARTCHAR 0065
ENCODING 101
SWIDTH 1000 0
DWIDTH 16 0
BBX 10 10 0 2
BITMAP
3F00
3F00
C0C0
C0C0
FF00
FF00
C000
C000
3FC0
3FC0
ENDCHAR
STARTCHAR 0066
ENCODING 102
SWIDTH 1000 0
DWIDTH 16 0
BBX 6 12 4 2
BITMAP
3C
3C
C0
C0
F0
F0
C0
C0
C0
C0
C0
C0
ENDCHAR
STARTCHAR 0067
ENCODING 103
SWIDTH 1000 0
DWIDTH 16 0
BBX 12 12 0 0
BITMAP
3FF0
3FF0
C030
C030
C030
C030
3FF0
3FF0
0030
0030
3FC0
3FC0
ENDCHAR
STARTCHAR 0068
ENCODING 104
SWIDTH 1000 0
DWIDTH 16 0
BBX 10 12 0 2
BITMAP
C000
C000
C000
C000
FF00
FF00
C0C0
C0C0
C0C0
C0C0
C0C0
C0C0
ENDCHAR
STARTCHAR 0069
ENCODING 105
SWIDTH 1000 0
DWIDTH 16 0
BBX 6 12 2 2
BITMAP
30
30
00
00
F0
F0
30
30
30
30
FC
FC
ENDCHAR
STARTCHAR 006A
ENCODING 106
SWIDTH 1000 0
DWIDTH 16 0
BBX 8 14 2 0
BITMAP
03
03
00
00
03
03
03
03
03
03
C3
C3
3C
3C
ENDCHAR
STARTCHAR 006B
ENCODING 107
SWIDTH 1000 0
DWIDTH 16 0
BBX 8 12 2 2
BITMAP
C0
C0
CC
CC
F0
F0
F0
F0
CC
CC
C3
C3
ENDCHAR
STARTCHAR 006C
ENCODING 108
SWIDTH 1000 0
DWIDTH 16 0
BBX 6 12 4 2
BITMAP
C0
C0
C0
C0
C0
C0
C0
C0
C0
C0
3C
3C
ENDCHAR
STARTCHAR 006D
ENCODING 109
SWIDTH 1000 0
DWIDTH 16 0
BBX 10 10 0 2
BITMAP
F300
F300
CCC0
CCC0
CCC0
CCC0
CCC0
CCC0
CCC0
CCC0
ENDCHAR
STARTCHAR 006E
ENCODING 110
SWIDTH 1000 0
DWIDTH 16 0
BBX 10 10 0 2
BITMAP
FF00
FF00
C0C0
C0C0
C0C0
C0C0
C0C0
C0C0
C0C0
C0C0
ENDCHAR
STARTCHAR 006F
ENCODING 111
SWIDTH 1000 0
DWIDTH 16 0
BBX 10 10 0 2
BITMAP
3F00
3F00
C0C0
C0C0
C0C0
C0C0
C0C0
C0C0
3F00
3F00
ENDCHAR
STARTCHAR 0070
ENCODING 112
SWIDTH 1000 0
DWIDTH 16 0
BBX 10 12 0 0
BITMAP
FF00
FF00
C0C0
C0C0
C0C0
C0C0
FF00
FF00
C000
C000
C000
C000
ENDCHAR
STARTCHAR 0071
ENCODING 113
SWIDTH 1000 0
DWIDTH 16 0
BBX 12 12 0 0
BITMAP
3FC0
3FC0
C0C0
C0C0
C0C0
C0C0
3FC0
3FC0
00C0
00C0
00F0
00F0
ENDCHAR
STARTCHAR 0072
ENCODING 114
SWIDTH 1000 0
DWIDTH 16 0
BBX 8 10 2 2
BITMAP
3F
3F
C0
C0
C0
C0
C0
C0
C0
C0
ENDCHAR
STARTCHAR 0073
ENCODING 115
SWIDTH 1000 0
DWIDTH 16 0
BBX 10 10 0 2
BITMAP
3F00
3F00
C000
C000
3F00
3F00
00C0
00C0
FF00
FF00
ENDCHAR
STARTCHAR 0074
ENCODING 116
SWIDTH 1000 0
DWIDTH 16 0
BBX 8 12 4 2
BITMAP
30
30
FC
FC
30
30
30
30
30
30
0F
0F
ENDCHAR
STARTCHAR 0075
ENCODING 117
SWIDTH 1000 0
DWIDTH 16 0
BBX 10 10 0 2
BITMAP
C0C0
C0C0
C0C0
C0C0
C0C0
C0C0
C0C0
C0C0
3F00
3F00
ENDCHAR
STARTCHAR 0076
ENCODING 118
SWIDTH 1000 0
DWIDTH 16 0
BBX 10 10 0 2
BITMAP
C0C0
C0C0
C0C0
C0C0
3300
3300
3300
3300
0C00
0C00
ENDCHAR
STARTCHAR 0077
ENCODING 119
SWIDTH 1000 0
DWIDTH 16 0
BBX 10 10 0 2
BITMAP
C0C0
C0C0
CCC0
CCC0
CCC0
CCC0
CCC0
CCC0
3300
3300
ENDCHAR
STARTCHAR 0078
ENCODING 120
SWIDTH 1062 0
DWIDTH 17 0
BBX 10 10 0 2
BITMAP
C0C0
C0C0
3300
3300
0C00
0C00
3300
3300
C0C0
C0C0
ENDCHAR
STARTCHAR 0079
ENCODING 121
SWIDTH 1000 0
DWIDTH 16 0
BBX 10 12 0 0
BITMAP
C0C0
C0C0
C0C0
C0C0
C0C0
C0C0
3FC0
3FC0
00C0
00C0
3F00
3F00
ENDCHAR
STARTCHAR 007A
ENCODING 122
SWIDTH 1000 0
DWIDTH 16 0
BBX 10 10 0 2
BITMAP
FFC0
FFC0
0300
0300
0C00
0C00
3000
3000
FFC0
FFC0
ENDCHAR
STARTCHAR 007B
ENCODING 123
SWIDTH 1000 0
DWIDTH 16 0
BBX 10 12 2 2
BITMAP
0FC0
0FC0
0C00
0C00
F000
F000
0C00
0C00
0C00
0C00
0FC0
0FC0
ENDCHAR
STARTCHAR 007C
ENCODING 124
SWIDTH 1000 0
DWIDTH 16 0
BBX 2 12 6 2
BITMAP
C0
C0
C0
C0
C0
C0
C0
C0
C0
C0
C0
C0
ENDCHAR
STARTCHAR 007D
ENCODING 125
SWIDTH 1000 0
DWIDTH 16 0
BBX 10 12 2 2
BITMAP
FC00
FC00
0C00
0C00
03C0
03C0
0C00
0C00
0C00
0C00
FC00
FC00
ENDCHAR
STARTCHAR 007E
ENCODING 126
SWIDTH 1000 0
DWIDTH 16 0
BBX 8 4 2 9
BITMAP
33
33
CC
CC
ENDCHAR
STARTCHAR 00A0
ENCODING 160
SWIDTH 1000 0
DWIDTH 16 0
BBX 0 0 0 0
BITMAP
ENDCHAR
STARTCHAR 00A3
ENCODING 163
SWIDTH 1000 0
DWIDTH 16 0
BBX 12 12 0 2
BITMAP
0FC0
0FC0
3030
3030
FF00
FF00
3000
3000
3000
3000
FFF0
FFF0
ENDCHAR
STARTCHAR 00A4
ENCODING 164
SWIDTH 1000 0
DWIDTH 16 0
BBX 15 16 0 0
BITMAP
FFFE
FFFE
C07E
C07E
3F9E
3F9E
FF9E
FF9E
C07E
C07E
3FFE
3FFE
001E
001E
FFFE
FFFE
ENDCHAR
STARTCHAR 00A9
ENCODING 169
SWIDTH 1000 0
DWIDTH 16 0
BBX 16 16 0 0
BITMAP
0FF0
0FF0
300C
300C
C3C3
C3C3
CC03
CC03
CC03
CC03
C3C3
C3C3
300C
300C
0FF0
0FF0
ENDCHAR
STARTCHAR 00B0
ENCODING 176
SWIDTH 1000 0
DWIDTH 16 0
BBX 15 16 0 0
BITMAP
FFFE
FFFE
C07E
C07E
3F9E
3F9E
C07E
C07E
3F9E
3F9E
3F9E
3F9E
C07E
C07E
FFFE
FFFE
ENDCHAR
STARTCHAR 00C5
ENCODING 197
SWIDTH 1000 0
DWIDTH 16 0
BBX 8 8 7 7
BITMAP
FF
FF
FF
FF
FF
FF
FF
FF
ENDCHAR
STARTCHAR 00C7
ENCODING 199
SWIDTH 1000 0
DWIDTH 16 0
BBX 16 8 0 7
BITMAP
FFFF
FFFF
FFFF
FFFF
FFFF
FFFF
FFFF
FFFF
ENDCHAR
STARTCHAR 00C8
ENCODING 200
SWIDTH 1000 0
DWIDTH 16 0
BBX 16 16 0 0
BITMAP
00FF
00FF
00FF
00FF
00FF
00FF
00FF
00FF
FF00
FF00
FF00
FF00
FF00
FF00
FF00
FF00
ENDCHAR
STARTCHAR 00CC
ENCODING 204
SWIDTH 1000 0
DWIDTH 16 0
BBX 16 16 0 0
BITMAP
FFFF
FFFF
FFFF
FFFF
FFFF
FFFF
FFFF
FFFF
00FF
00FF
00FF
00FF
00FF
00FF
00FF
00FF
ENDCHAR
STARTCHAR 00CE
ENCODING 206
SWIDTH 1000 0
DWIDTH 16 0
BBX 8 8 7 1
BITMAP
FF
FF
FF
FF
FF
FF
FF
FF
ENDCHAR
STARTCHAR 00CF
ENCODING 207
SWIDTH 1000 0
DWIDTH 16 0
BBX 16 16 0 0
BITMAP
FF00
FF00
FF00
FF00
FF00
FF00
FF00
FF00
00FF
00FF
00FF
00FF
00FF
00FF
00FF
00FF
ENDCHAR
STARTCHAR 00D2
ENCODING 210
SWIDTH 1000 0
DWIDTH 16 0
BBX 16 8 0 1
BITMAP
FFFF
FFFF
FFFF
FFFF
FFFF
FFFF
FFFF
FFFF
ENDCHAR
STARTCHAR 00D3
ENCODING 211
SWIDTH 1000 0
DWIDTH 16 0
BBX 8 8 0 1
BITMAP
FF
FF
FF
FF
FF
FF
FF
FF
ENDCHAR
STARTCHAR 00D4
ENCODING 212
SWIDTH 1000 0
DWIDTH 16 0
BBX 8 16 0 0
BITMAP
FF
FF
FF
FF
FF
FF
FF
FF
FF
FF
FF
FF
FF
FF
FF
FF
ENDCHAR
STARTCHAR 00D8
ENCODING 216
SWIDTH 1000 0
DWIDTH 16 0
BBX 16 16 0 0
BITMAP
FFFF
FFFF
FFFF
FFFF
FFFF
FFFF
FFFF
FFFF
FFFF
FFFF
FFFF
FFFF
FFFF
FFFF
FFFF
FFFF
ENDCHAR
STARTCHAR 0131
ENCODING 305
SWIDTH 1000 0
DWIDTH 16 0
BBX 8 8 0 7
BITMAP
FF
FF
FF
FF
FF
FF
FF
FF
ENDCHAR
STARTCHAR 02C6
ENCODING 710
SWIDTH 1000 0
DWIDTH 16 0
BBX 16 16 0 0
BITMAP
FF00
FF00
FF00
FF00
FF00
FF00
FF00
FF00
FFFF
FFFF
FFFF
FFFF
FFFF
FFFF
FFFF
FFFF
ENDCHAR
STARTCHAR 02DC
ENCODING 732
SWIDTH 1000 0
DWIDTH 16 0
BBX 16 16 0 0
BITMAP
00FF
00FF
00FF
00FF
00FF
00FF
00FF
00FF
FFFF
FFFF
FFFF
FFFF
FFFF
FFFF
FFFF
FFFF
ENDCHAR
STARTCHAR 201A
ENCODING 8218
SWIDTH 1000 0
DWIDTH 16 0
BBX 15 16 0 0
BITMAP
FFFE
FFFE
C03E
C03E
3F1E
3F1E
3CDE
3CDE
33DE
33DE
0FDE
0FDE
C03E
C03E
FFFE
FFFE
ENDCHAR
STARTCHAR 2021
ENCODING 8225
SWIDTH 1000 0
DWIDTH 16 0
BBX 15 16 0 0
BITMAP
FFFE
FFFE
001E
001E
FF9E
FF9E
FE7E
FE7E
FCFE
FCFE
F3FE
F3FE
F3FE
F3FE
FFFE
FFFE
ENDCHAR
STARTCHAR 2030
ENCODING 8240
SWIDTH 1000 0
DWIDTH 16 0
BBX 8 16 7 0
BITMAP
FF
FF
FF
FF
FF
FF
FF
FF
FF
FF
FF
FF
FF
FF
FF
FF
ENDCHAR
STARTCHAR 2039
ENCODING 8249
SWIDTH 1000 0
DWIDTH 16 0
BBX 15 16 0 0
BITMAP
FFFE
FFFE
C07E
C07E
3F9E
3F9E
FC7E
FC7E
FF9E
FF9E
3F9E
3F9E
C07E
C07E
FFFE
FFFE
ENDCHAR
STARTCHAR 203A
ENCODING 8250
SWIDTH 1000 0
DWIDTH 16 0
BBX 15 16 0 0
BITMAP
FFFE
FFFE
FCFE
FCFE
F0FE
F0FE
CCFE
CCFE
3CFE
3CFE
001E
001E
FCFE
FCFE
FFFE
FFFE
ENDCHAR
STARTCHAR 2044
ENCODING 8260
SWIDTH 1000 0
DWIDTH 16 0
BBX 15 16 0 0
BITMAP
FFFE
FFFE
F0FE
F0FE
CCFE
CCFE
FCFE
FCFE
FCFE
FCFE
FCFE
FCFE
C01E
C01E
FFFE
FFFE
ENDCHAR
STARTCHAR 2219
ENCODING 8729
SWIDTH 1000 0
DWIDTH 16 0
BBX 15 16 0 0
BITMAP
FFFE
FFFE
C07E
C07E
3F9E
3F9E
3F9E
3F9E
C01E
C01E
FF9E
FF9E
C07E
C07E
FFFE
FFFE
ENDCHAR
STARTCHAR F000
ENCODING 61440
SWIDTH 1000 0
DWIDTH 16 0
BBX 16 16 0 0
BITMAP
FFFF
FFFF
FFFF
FFFF
FFFF
FFFF
FFFF
FFFF
FF00
FF00
FF00
FF00
FF00
FF00
FF00
FF00
ENDCHAR
STARTCHAR F001
ENCODING 61441
SWIDTH 1000 0
DWIDTH 16 0
BBX 15 16 0 0
BITMAP
FFFE
FFFE
001E
001E
3FFE
3FFE
007E
007E
FF9E
FF9E
3F9E
3F9E
C07E
C07E
FFFE
FFFE
ENDCHAR
STARTCHAR F002
ENCODING 61442
SWIDTH 1000 0
DWIDTH 16 0
BBX 15 16 0 0
BITMAP
FFFE
FFFE
C07E
C07E
3FFE
3FFE
007E
007E
3F9E
3F9E
3F9E
3F9E
C07E
C07E
FFFE
FFFE
ENDCHAR
ENDFONT
